<?xml version="1.0" encoding="UTF-8" standalone="no"?>
<!-- Created with Inkscape (http://www.inkscape.org/) -->

<svg
   xmlns:dc="http://purl.org/dc/elements/1.1/"
   xmlns:cc="http://creativecommons.org/ns#"
   xmlns:rdf="http://www.w3.org/1999/02/22-rdf-syntax-ns#"
   xmlns:svg="http://www.w3.org/2000/svg"
   xmlns="http://www.w3.org/2000/svg"
   xmlns:sodipodi="http://sodipodi.sourceforge.net/DTD/sodipodi-0.dtd"
   xmlns:inkscape="http://www.inkscape.org/namespaces/inkscape"
   width="52.916664mm"
   height="52.916664mm"
   viewBox="0 0 52.916664 52.916664"
   version="1.1"
   id="svg8"
   inkscape:version="0.92.3 (2405546, 2018-03-11)"
   sodipodi:docname="qrcode-200.svg"
   inkscape:export-filename="D:\repositorios\livro-pog\assets\images\qrcode-200.png"
   inkscape:export-xdpi="96"
   inkscape:export-ydpi="96">
  <defs
     id="defs2" />
  <sodipodi:namedview
     id="base"
     pagecolor="#ffffff"
     bordercolor="#666666"
     borderopacity="1.0"
     inkscape:pageopacity="0.0"
     inkscape:pageshadow="2"
     inkscape:zoom="1.979899"
     inkscape:cx="-142.45193"
     inkscape:cy="97.346268"
     inkscape:document-units="mm"
     inkscape:current-layer="layer1"
     showgrid="false"
     inkscape:window-width="1920"
     inkscape:window-height="1017"
     inkscape:window-x="-8"
     inkscape:window-y="-8"
     inkscape:window-maximized="1" />
  <metadata
     id="metadata5">
    <rdf:RDF>
      <cc:Work
         rdf:about="">
        <dc:format>image/svg+xml</dc:format>
        <dc:type
           rdf:resource="http://purl.org/dc/dcmitype/StillImage" />
        <dc:title />
      </cc:Work>
    </rdf:RDF>
  </metadata>
  <g
     inkscape:label="Camada 1"
     inkscape:groupmode="layer"
     id="layer1"
     transform="translate(34.244751,-194.70086)">
    <g
       id="g861"
       transform="matrix(0.35380286,0,0,0.35380286,-22.12886,160.00974)">
      <rect
         y="98.052132"
         x="-34.244751"
         height="149.5654"
         width="149.5654"
         id="rect846"
         style="opacity:1;vector-effect:none;fill:#eceff1;fill-opacity:1;fill-rule:nonzero;stroke:none;stroke-width:17.71523476;stroke-linecap:butt;stroke-linejoin:miter;stroke-miterlimit:4;stroke-dasharray:none;stroke-dashoffset:0;stroke-opacity:0;paint-order:fill markers stroke" />
      <path
         inkscape:connector-curvature="0"
         id="path844"
         d="M -10.985563,237.96054 H -24.58777 v -14.01437 -14.01441 h 13.602207 13.6022077 v 14.01441 14.01437 z m -0.412189,-4.12186 h 9.8925146 v -9.89251 -9.89252 h -9.8925146 -9.892514 v 9.89252 9.89251 z m 0,-4.12189 h -5.770632 v -5.77062 -5.77062 h 5.770632 5.7706325 v 5.77062 5.77062 z m 29.677544,8.24375 h -4.121879 v -2.06091 -2.06095 h -1.64875 -1.648754 v -2.06094 -2.06095 H 8.7994663 6.7385237 v -4.12186 -4.12189 h 3.7096963 3.709693 v -3.70971 -3.70968 H 10.44822 6.7385237 v -4.12189 -4.12186 h -4.121879 -4.1218821 v -2.06094 -2.06095 h -2.0609395 -2.0609426 v 2.06095 2.06094 h -1.6487503 -1.6487535 v -2.06094 -2.06095 h -2.0609397 -2.060939 v 2.06095 2.06094 h -2.060942 -2.06094 v -2.06094 -2.06095 h -2.060939 -2.060943 v 2.06095 2.06094 h -1.64875 -1.648754 v -2.06094 -2.06095 h 1.648754 1.64875 v -1.64876 -1.64873 h 2.060943 2.060939 v 1.64873 1.64876 h 2.06094 2.060942 v -1.64876 -1.64873 h 3.7096896 3.7096929 v -2.06095 -2.06094 h -3.7096929 -3.7096896 v -2.06095 -2.06095 h 3.7096896 3.7096929 v 2.06095 2.06095 h 4.1218821 4.1218821 v -2.06095 -2.06095 H 0.55570211 -1.5052374 v -2.06094 -2.06092 H 0.55570211 2.6166447 v -2.06094 -2.06095 H 0.55570211 -1.5052374 v -1.64876 -1.64873 h -2.0609395 -2.0609426 v 1.64873 1.64876 h -1.6487503 -1.6487535 v 2.06095 2.06094 h -2.0609397 -2.060939 v -2.06094 -2.06095 h -2.060942 -2.06094 v -1.64876 -1.64873 h -2.060939 -2.060943 v -4.12189 -4.1219 h 2.060943 2.060939 v -2.06094 -2.06092 h -2.060939 -2.060943 v -1.64876 -1.64876 h 2.060943 2.060939 v 1.64876 1.64876 h 2.06094 2.060942 v 2.06092 2.06094 h 3.7096896 3.7096929 v -2.06094 -2.06092 h -1.6487503 -1.6487535 v -1.64876 -1.64876 h -2.0609397 -2.060939 v -2.06095 -2.06091 h -2.060942 -2.06094 v -4.12189 -4.12189 h 4.121882 4.1218787 v 2.06094 2.06095 h 5.7706325 5.7706355 v -2.06095 -2.06094 H 0.55570211 -1.5052374 v -2.06095 -2.06091 h -3.7096929 -3.709693 v -1.64877 -1.64876 h -2.0609397 -2.060939 v 1.64876 1.64877 h -4.121882 -4.121882 v 6.1828 6.18284 h -1.64875 -1.648754 v -7.8316 -7.83157 h 3.709693 3.709693 v -2.06095 -2.06091 h 4.121882 4.1218787 v 2.06091 2.06095 h 3.709693 3.7096929 v -2.06095 -2.06091 h 4.1218821 4.121879 v -4.12189 -4.12189 h 2.0609426 2.0609427 v -2.06095 -2.06091 H 8.7994663 6.7385237 v -1.64877 -1.64876 h 2.0609426 2.0609427 v -4.12186 -4.12189 h 1.648754 1.64875 v 2.06094 2.06095 h 2.060936 2.060943 v -2.06095 -2.06094 h 2.06094 2.060939 v -2.06095 -2.06094 h 4.121882 4.121885 v -1.64873 -1.64877 h 1.648751 1.648753 v 1.64877 1.64873 h 4.121882 4.121879 v -1.64873 -1.64877 h 2.06094 2.060942 v 5.77063 5.77065 h -2.060942 -2.06094 v -2.06095 -2.06094 h -4.121879 -4.121882 v 2.06094 2.06095 h -1.648753 -1.648751 v 2.06092 2.06094 h 5.770633 5.770632 v 1.64876 1.64877 h -4.121879 -4.121882 v 4.12186 4.12189 h 2.06094 2.060942 v -2.06095 -2.06094 h 2.06094 2.060939 v 2.06094 2.06095 h 2.06094 2.060942 v -2.06095 -2.06094 h 1.648751 1.648753 v -2.06095 -2.06091 h -1.648753 -1.648751 v -1.64877 -1.64876 h 5.770633 5.770632 v 5.77066 5.77062 h -2.060939 -2.06094 v -2.06095 -2.06094 h -2.060942 -2.06094 v 6.18283 6.18281 h -1.648753 -1.648751 v 1.64876 1.64877 h -6.182821 -6.182822 v -1.64877 -1.64876 h 6.182822 6.182821 v -2.06095 -2.06091 h -2.060942 -2.06094 v -2.06095 -2.06094 h -2.060939 -2.06094 v 2.06094 2.06095 h -7.831575 -7.831578 v -6.18284 -6.1828 h 2.060943 2.060939 v 4.12186 4.12189 h 2.06094 2.060945 v -5.77062 -5.77066 h -2.060945 -2.06094 v -4.12186 -4.12189 h -2.060939 -2.060943 v 2.06094 2.06095 h -2.060939 -2.06094 v 2.06092 2.06094 h -3.70969 -3.709693 v 1.64876 1.64877 h 1.648754 1.64875 v 2.06091 2.06095 h 2.060936 2.060943 v 6.18283 6.18281 h 4.121879 4.121882 v 1.64876 1.64877 h -2.060939 -2.060943 v 2.06091 2.06095 h 2.060943 2.060939 v 2.06094 2.06095 h 2.06094 2.060945 v 2.06094 2.06095 h -2.060945 -2.06094 v 2.06091 2.06095 h 3.709696 3.709693 v -2.06095 -2.06091 h 4.121882 4.121879 v -2.06095 -2.06094 h -4.121879 -4.121882 v -2.06095 -2.06094 h 6.182822 6.182821 v 4.12189 4.12189 h 1.648751 1.648753 v -2.06095 -2.06094 h 6.182822 6.182821 v 2.06094 2.06095 h 2.06094 2.060942 v -9.89252 -9.89251 h -2.060942 -2.06094 v 3.70968 3.70971 H 59.910793 57.84985 v -1.64877 -1.64876 h -2.060939 -2.06094 v -2.06095 -2.06091 h 4.121879 4.121882 v -6.18284 -6.1828 h 2.06094 2.060942 v -1.64877 -1.64876 h -2.060942 -2.06094 v -4.12186 -4.12189 H 57.84985 53.727971 v 2.06094 2.06095 h -2.060942 -2.06094 v -4.12189 -4.12189 h 8.243761 8.243764 v -1.64873 -1.64877 h 3.70969 3.709693 v 1.64877 1.64873 h -2.060939 -2.06094 v 4.12189 4.12189 h 2.06094 2.060939 v 3.70968 3.70971 h -2.060939 -2.06094 v 2.06091 2.06095 h 2.06094 2.060939 v 4.12189 4.12189 h 4.121882 4.121882 v 5.77062 5.77063 h 5.770633 5.770632 v -2.06095 -2.06091 h -2.060939 -2.06094 v -1.64877 -1.64876 H 87.527394 85.87864 v -2.06095 -2.06091 h 1.648754 1.648753 v 2.06091 2.06095 h 2.06094 2.060939 v 1.64876 1.64877 h 4.121882 4.121882 v -1.64877 -1.64876 h 2.06094 2.06094 v 3.70971 3.70968 h -2.06094 -2.06094 v 2.06094 2.06095 h -2.060942 -2.06094 v -2.06095 -2.06094 h -2.060942 -2.06094 v 2.06094 2.06095 h -5.770632 -5.770633 v -2.06095 -2.06094 h -2.060942 -2.06094 v 4.12189 4.12189 h -5.770632 -5.770633 v 2.06091 2.06095 h -2.060942 -2.06094 v 1.64876 1.64876 h 2.06094 2.060942 v 2.06092 2.06094 h -2.060942 -2.06094 v 2.06095 2.06095 h 3.709693 3.709693 v -5.77063 -5.77065 h 4.121879 4.121882 v 1.64876 1.64876 h 2.06094 2.060942 v -1.64876 -1.64876 h 5.770633 5.770632 v -2.06095 -2.06091 h 2.06094 2.060942 v 3.70968 3.7097 h 4.121882 4.12188 v 2.06092 2.06094 h -6.182822 -6.182822 v 2.06095 2.06095 h 6.182822 6.182822 v 2.06094 2.06095 h -2.06094 -2.06094 v 1.64873 1.64876 h 2.06094 2.06094 v 2.06095 2.06094 h -2.06094 -2.06094 v -2.06094 -2.06095 h -4.121882 -4.121882 v -3.70971 -3.70967 h -2.060939 -2.06094 v 5.77062 5.77065 h 4.121879 4.121882 v 2.06092 2.06094 h -4.121882 -4.121879 v -2.06094 -2.06092 H 87.527394 85.87864 v 2.06092 2.06094 h -4.121879 -4.121882 v -2.06094 -2.06092 h 2.06094 2.060942 v -2.06094 -2.06095 h -4.121882 -4.121882 v -3.70971 -3.70967 h -2.060939 -2.06094 v 2.06094 2.06095 h -1.648753 -1.648751 v 3.70968 3.7097 h -2.060942 -2.06094 v 2.06092 2.06094 H 59.910793 57.84985 v 2.06095 2.06095 h -4.121879 -4.121882 v -2.06095 -2.06095 h 4.121882 4.121879 v -2.06094 -2.06092 h -2.060939 -2.06094 v -2.06094 -2.06095 h -3.709693 -3.709693 v -1.64876 -1.64873 h 1.648751 1.648753 v -2.06095 -2.06094 h -1.648753 -1.648751 v -2.06095 -2.06095 h -4.121882 -4.121879 v 2.06095 2.06095 h 2.06094 2.060939 v 7.83157 7.83156 h 2.06094 2.060942 v 2.06095 2.06095 h -2.060942 -2.06094 v 2.06094 2.06095 h 2.06094 2.060942 v 1.64873 1.64876 h 1.648751 1.648753 v -1.64876 -1.64873 h 4.121882 4.121879 v 3.70967 3.70971 h 2.060943 2.060939 v -5.77065 -5.77062 h 3.709693 3.709693 v -4.1219 -4.12186 h 2.06094 2.060939 v 6.18281 6.18284 h 2.060943 2.060939 v -2.06095 -2.06094 h 5.770633 5.770635 v 2.06094 2.06095 h 2.06094 2.060939 v 1.64873 1.64876 h -2.060939 -2.06094 v 2.06095 2.06094 h 4.121879 4.121882 v -2.06094 -2.06095 h 2.06094 2.060942 v 4.12189 4.12186 h -2.060942 -2.06094 v 2.06095 2.06094 h 4.121882 4.12188 v 2.06095 2.06095 h -2.06094 -2.06094 v 1.64873 1.64876 h -2.060942 -2.06094 v 2.06095 2.06094 h -4.121882 -4.121879 v -2.06094 -2.06095 H 87.527394 85.87864 v 2.06095 2.06094 h -2.060939 -2.06094 v 4.12186 4.12189 h 3.709693 3.709693 v 2.06095 2.06091 h -3.709693 -3.709693 v -2.06091 -2.06095 h -2.060942 -2.06094 v -2.06094 -2.06095 H 75.57394 73.512997 v 2.06095 2.06094 h -2.060939 -2.06094 v 2.06095 2.06091 h -1.648753 -1.648751 v -2.06091 -2.06095 h -2.060942 -2.06094 v 2.06095 2.06091 H 57.84985 53.727971 v -2.06091 -2.06095 h 4.121879 4.121882 v -4.12189 -4.12186 H 59.910793 57.84985 v 2.06092 2.06094 h -2.060939 -2.06094 v -2.06094 -2.06092 h -2.060942 -2.06094 v -2.06094 -2.06095 h -3.709693 -3.709693 v 4.12189 4.12186 h -4.121879 -4.121882 v 2.06095 2.06094 h 2.06094 2.060942 v 2.06095 2.06091 h -5.770635 -5.770636 v -2.06091 -2.06095 h 2.06094 2.060945 v -2.06094 -2.06095 h -4.121885 -4.121882 v 4.12189 4.12186 z m -2.060943,-4.12186 h 2.060943 v -4.12189 -4.12186 h 2.06094 2.060939 v -2.06094 -2.06095 h -2.060939 -2.06094 v 2.06095 2.06094 h -3.70969 -3.709693 v 2.06092 2.06094 h 1.648754 1.64875 v 2.06095 2.06094 z m 51.523516,0 h 1.648753 v -2.06094 -2.06095 h -1.648753 -1.648751 v 2.06095 2.06094 z m -35.448176,-4.12189 h 1.648753 v -4.12186 -4.12189 h 2.06094 2.060942 v -1.64876 -1.64873 h 4.121879 4.121882 v -2.06095 -2.06095 h 1.648751 1.648753 v 2.06095 2.06095 h 2.06094 2.060942 v -2.06095 -2.06095 h 2.06094 2.060939 v 3.70968 3.70971 h -2.060939 -2.06094 v 2.06095 2.06094 h 2.06094 2.060939 v -2.06094 -2.06095 h 2.060943 2.060939 v -1.64876 -1.64873 h 2.06094 2.060942 v -6.18284 -6.18281 h 1.648751 1.648753 v -2.06094 -2.06095 h 2.06094 2.060939 v -1.64876 -1.64873 h -3.709693 -3.70969 v 3.70967 3.70971 h -2.060942 -2.06094 v 4.12186 4.12189 H 59.910793 57.84985 v -2.06094 -2.06095 h -2.060939 -2.06094 v -4.12186 -4.12189 h -2.060942 -2.06094 v 4.12189 4.12186 h -1.648753 -1.648751 v -2.06094 -2.06092 h -2.060942 -2.06094 v -3.70971 -3.70967 h -4.121879 -4.121882 v 1.64873 1.64876 h 2.06094 2.060942 v 2.06095 2.06094 h -3.709693 -3.709693 v -2.06094 -2.06095 h -4.121885 -4.121882 v -1.64876 -1.64873 h -2.060939 -2.06094 v 1.64873 1.64876 h 2.06094 2.060939 v 2.06095 2.06094 h -4.121879 -4.121879 v 4.12186 4.12189 h 11.953451 11.95346 v 2.06095 2.06095 h -5.770635 -5.770636 v 1.64873 1.64876 h 2.06094 2.060945 v 4.12189 4.12186 z m 11.953454,-15.66314 h -2.06094 v -2.06094 -2.06095 h -2.060939 -2.06094 v -2.06094 -2.06092 h 2.06094 2.060939 v 2.06092 2.06094 h 2.06094 2.060942 v 2.06095 2.06094 z m 7.419386,0 h -2.06094 v -2.06094 -2.06095 h 2.06094 2.060942 v 2.06095 2.06094 z m 23.906911,11.54128 h 6.182821 v -2.06094 -2.06095 H 75.57394 69.391118 v 2.06095 2.06094 z m 4.121879,-7.41938 h 6.182821 v -6.18284 -6.18281 h -6.182821 -6.182822 v 6.18281 6.18284 z m 0,-4.1219 h -2.06094 v -2.06094 -2.06095 h 2.06094 2.060942 v 2.06095 2.06094 z m 11.541268,0 h 2.060939 v -2.06094 -2.06095 h -2.060939 -2.06094 v 2.06095 2.06094 z M 8.7994663,205.8099 h 2.0609427 v -2.06094 -2.06095 h 1.648754 1.64875 v -3.70971 -3.70967 h 2.060936 2.060943 v -2.06095 -2.06095 h 2.06094 2.060939 v -2.06094 -2.06092 h 2.060943 2.060939 v 6.18281 6.18284 h 2.06094 2.060945 v -6.18284 -6.18281 h -2.060945 -2.06094 v -3.7097 -3.70968 h 2.06094 2.060945 v -2.06095 -2.06094 h 1.648751 1.648753 v 2.06094 2.06095 h 2.06094 2.060942 v -2.06095 -2.06094 h -2.060942 -2.06094 v -2.06095 -2.06095 h 2.06094 2.060942 v -2.06094 -2.06092 h 5.770633 5.770632 v -1.64876 -1.64876 h -7.831575 -7.831572 v 3.70971 3.70967 h -1.648753 -1.648751 v -2.06094 -2.06092 h -2.060945 -2.06094 v 2.06092 2.06094 h -2.060939 -2.060943 v -5.77062 -5.77062 h -2.060939 -2.06094 v -6.18284 -6.1828 h -2.060943 -2.060936 v -7.8316 -7.83157 h -1.64875 -1.648754 v 6.18283 6.18281 H 4.6775842 -1.5052374 v 1.64876 1.64877 H 0.55570211 2.6166447 v 2.06091 2.06095 h 2.0609395 2.0609395 v 2.06094 2.06095 h 2.0609426 2.0609427 v -2.06095 -2.06094 H 8.7994663 6.7385237 v -2.06095 -2.06091 h 3.7096963 3.709693 v 8.24375 8.24375 h 2.060936 2.060943 v 5.77065 5.77063 h 2.06094 2.060939 v 5.77062 5.77065 h -2.060939 -2.06094 v -2.06094 -2.06095 h -2.060943 -2.060936 v -1.64876 -1.64873 h -1.64875 -1.648754 v -2.06095 -2.06094 h 1.648754 1.64875 v -4.1219 -4.12186 h -1.64875 -1.648754 v -1.64876 -1.64876 H 6.7385237 2.6166447 v -2.06095 -2.06091 H 0.55570211 -1.5052374 v 2.06091 2.06095 H 0.55570211 2.6166447 v 1.64876 1.64876 H 0.55570211 -1.5052374 v 2.06092 2.06094 h -2.0609395 -2.0609426 v 2.06095 2.06095 h -1.6487503 -1.6487535 v 2.06094 2.06095 h -2.0609397 -2.060939 v -2.06095 -2.06094 h -2.060942 -2.06094 v 2.06094 2.06095 h 2.06094 2.060942 v 1.64873 1.64876 h 2.060939 2.0609397 v -1.64876 -1.64873 h 1.6487535 1.6487503 v -2.06095 -2.06094 h 2.0609426 2.0609395 v 2.06094 2.06095 H 0.55570211 2.6166447 v 1.64873 1.64876 h 2.0609395 2.0609395 v 2.06095 2.06094 H 4.6775842 2.6166447 v 2.06092 2.06094 h 2.0609395 2.0609395 v 2.06095 2.06095 H 4.6775842 2.6166447 v 2.06094 2.06095 H 0.55570211 -1.5052374 v 1.64873 1.64876 h 4.1218821 4.121879 v 2.06095 2.06094 z m 3.7096967,-11.54127 h -1.648754 v -2.06095 -2.06095 H 8.7994663 6.7385237 v -2.06094 -2.06092 h 5.7706393 5.770629 v 2.06092 2.06094 h -2.060943 -2.060936 v 2.06095 2.06095 z M 8.7994663,181.90298 H 6.7385237 v -1.64876 -1.64873 H 4.6775842 2.6166447 v -2.06095 -2.06094 H 0.55570211 -1.5052374 v -2.06095 -2.06095 H 0.55570211 2.6166447 v -2.06094 -2.06092 h 2.0609395 2.0609395 v 2.06092 2.06094 H 4.6775842 2.6166447 v 2.06095 2.06095 h 2.0609395 2.0609395 v 2.06094 2.06095 h 2.0609426 2.0609427 v 1.64873 1.64876 z m 72.9572947,19.78503 h 4.121879 v -1.64876 -1.64873 h -4.121879 -4.121882 v 1.64873 1.64876 z M 36.003882,190.14673 h 2.060942 v -4.12186 -4.12189 h -2.060942 -2.06094 v 4.12189 4.12186 z m 23.906911,-4.12186 h 2.060939 v -2.06094 -2.06095 H 59.910793 57.84985 v 2.06095 2.06094 z m 23.906908,-4.12189 h 2.060939 v -1.64876 -1.64873 h -2.060939 -2.06094 v 1.64873 1.64876 z m -30.08973,-7.41938 h 4.121879 v -2.06095 -2.06095 h -4.121879 -4.121882 v 2.06095 2.06095 z m 35.860362,-4.1219 h 3.709693 v -2.06094 -2.06092 H 89.588333 85.87864 v 2.06092 2.06094 z m -33.799422,-4.12186 h 2.060939 v -3.7097 -3.70968 h -2.060939 -2.06094 v 3.70968 3.7097 z m -63.0647808,-3.29752 h 1.6487503 v -2.06095 -2.06091 h -1.6487503 -1.6487535 v 2.06091 2.06095 z M 73.512997,150.57668 h 4.121882 v -2.06095 -2.06091 H 75.57394 73.512997 v -3.70971 -3.70968 h -2.060939 -2.06094 v -4.12189 -4.12189 h -1.648753 -1.648751 v 4.12189 4.12189 h 1.648751 1.648753 v 5.77062 5.77063 z m -25.555661,87.38386 h -1.648751 v -2.06091 -2.06095 h 1.648751 1.648753 v 2.06095 2.06091 z m 47.40163,-4.12186 h -2.06094 v -2.06094 -2.06095 h 2.06094 2.060942 v 2.06095 2.06094 z m 8.243764,0 h -2.06094 v -2.06094 -2.06095 h 2.06094 2.06094 v 2.06095 2.06094 z m 0,-35.44816 h -2.06094 v -4.12189 -4.1219 h 2.06094 2.06094 v 4.1219 4.12189 z m -126.541746,-4.12189 h -1.648754 v -6.18284 -6.18281 h 1.648754 1.64875 v 6.18281 6.18284 z m 11.953453,-59.35509 H -24.58777 v -13.60222 -13.6022 h 13.602207 13.6022077 v 13.6022 13.60222 z m -0.412189,-4.12189 h 9.8925146 v -9.89252 -9.89251 h -9.8925146 -9.892514 v 9.89251 9.89252 z m 0,-4.12186 h -5.770632 v -5.77066 -5.77062 h 5.770632 5.7706325 v 5.77062 5.77066 z m 103.047028,8.24375 H 77.634879 v -13.60222 -13.6022 h 14.014397 14.014394 v 13.6022 13.60222 z m 0,-4.12189 h 9.892514 v -9.89252 -9.89251 h -9.892514 -9.892515 v 9.89251 9.89252 z m 0,-4.12186 H 85.87864 v -5.77066 -5.77062 h 5.770636 5.770632 v 5.77062 5.77066 z M 14.570102,111.00662 h -3.709693 v -1.64873 -1.64877 h 3.709693 3.70969 v 1.64877 1.64873 z"
         style="fill:#263238;fill-opacity:1;stroke-width:0.82437617" />
    </g>
  </g>
</svg>
