<?xml version="1.0" standalone="no"?>
<!DOCTYPE svg PUBLIC "-//W3C//DTD SVG 20010904//EN"
 "http://www.w3.org/TR/2001/REC-SVG-20010904/DTD/svg10.dtd">
<svg version="1.0" xmlns="http://www.w3.org/2000/svg"
 width="512.000000pt" height="512.000000pt" viewBox="0 0 512.000000 512.000000"
 preserveAspectRatio="xMidYMid meet">
<metadata>
Created by potrace 1.11, written by Peter Selinger 2001-2013
</metadata>
<g transform="translate(0.000000,512.000000) scale(0.100000,-0.100000)"
fill="#000000" stroke="none">
<path d="M80 4472 c-29 -13 -55 -37 -68 -62 -10 -20 -12 -393 -10 -1862 l3
-1838 33 -32 32 -33 2477 -3 c1846 -1 2483 1 2502 9 15 7 35 24 46 38 19 24
20 42 20 273 l0 248 -33 32 -32 33 -2205 3 -2205 2 -2 1565 -3 1565 -33 32
-32 33 -238 2 c-130 1 -244 -1 -252 -5z"/>
<path d="M1897 4139 c-16 -4 -35 -13 -43 -20 -12 -9 -128 -195 -179 -287 -11
-20 -64 -109 -80 -133 -5 -9 -21 -36 -35 -59 -14 -23 -29 -50 -35 -59 -9 -14
-92 -153 -114 -191 -5 -8 -109 -180 -230 -382 l-221 -368 0 -520 0 -520 1921
0 c1056 0 1918 3 1916 8 -6 9 -117 240 -174 362 -47 99 -123 259 -225 470 -34
69 -79 163 -101 210 -22 47 -71 150 -109 230 -39 80 -91 188 -115 240 -138
291 -182 377 -200 393 -31 27 -75 36 -114 23 -19 -7 -224 -139 -456 -294
l-423 -282 -435 579 c-239 319 -443 584 -453 590 -29 15 -64 19 -95 10z"/>
</g>
</svg>
